<svg width="64" height="64" viewBox="0 0 64 64" fill="none" xmlns="http://www.w3.org/2000/svg">
<path d="M35 31.8936C35 36.626 34.1724 42.593 33.5518 46.9138C33.3448 48.1482 32.5172 49.3828 31.069 49.7944C30.6552 49.7944 30.2414 50 30.0344 50C29 50 28.1724 49.5886 27.5518 48.9714L20.931 42.3872C19.2758 40.7412 17.2069 39.9182 15.1379 39.9182C13.069 39.9182 11 38.272 11 36.0088V27.7785C11 25.5152 12.8621 23.8692 14.931 23.8692C17 23.8692 19.2758 23.0462 20.7242 21.4001L27.138 15.0217C28.1724 13.9929 29.4138 13.7872 30.862 14.1987C32.1034 14.6102 33.138 15.639 33.3448 17.0793C34.1724 21.1944 35 27.1613 35 31.8936Z" fill="white"/>
<path d="M41.161 41.1796C40.7078 41.1796 40.2775 40.9129 40.09 40.4699C39.8404 39.8783 40.1162 39.1959 40.7078 38.9462C43.7054 37.6791 45.6416 34.7563 45.6416 31.4996C45.6416 28.2429 43.7054 25.3201 40.7078 24.053C40.1162 23.8029 39.8404 23.1205 40.09 22.5293C40.34 21.9387 41.0225 21.6604 41.6137 21.9115C45.4733 23.5431 47.9669 27.3064 47.9669 31.4996C47.9669 35.6928 45.4733 39.4561 41.6137 41.0877C41.4666 41.1502 41.3121 41.1796 41.161 41.1796Z" fill="white"/>
<path d="M39.1629 36.4504C38.7097 36.4504 38.2795 36.1837 38.092 35.7396C37.8423 35.148 38.1192 34.4667 38.7108 34.217C39.8043 33.7548 40.5103 32.6886 40.5103 31.5C40.5103 30.3109 39.8043 29.2448 38.7108 28.7829C38.1192 28.5332 37.842 27.8515 38.092 27.2603C38.3416 26.6676 39.0244 26.3892 39.6146 26.6414C41.5722 27.467 42.836 29.3745 42.836 31.5003C42.836 33.6258 41.5722 35.5325 39.6146 36.3589C39.467 36.421 39.3137 36.4504 39.1629 36.4504Z" fill="white"/>
</svg>
