<svg width="64" height="64" viewBox="0 0 64 64" fill="none" xmlns="http://www.w3.org/2000/svg">
<path d="M43.1457 46C42.6995 46 42.2751 45.7333 42.0907 45.2903C41.8446 44.6987 42.1164 44.0166 42.6995 43.7666C47.565 41.6796 50.7083 36.8651 50.7083 31.5C50.7083 26.1348 47.565 21.3202 42.6995 19.2333C42.1164 18.9836 41.8446 18.3012 42.0907 17.7096C42.3356 17.1191 43.006 16.8422 43.5923 17.0918C49.307 19.5422 53 25.198 53 31.5C53 37.8019 49.3073 43.4566 43.5923 45.9081C43.4469 45.9706 43.2947 46 43.1457 46Z" fill="white"/>
<path d="M41.161 41.1796C40.7078 41.1796 40.2775 40.9129 40.09 40.4699C39.8404 39.8783 40.1162 39.1959 40.7078 38.9462C43.7054 37.6791 45.6416 34.7563 45.6416 31.4996C45.6416 28.2429 43.7054 25.3201 40.7078 24.053C40.1162 23.8029 39.8404 23.1205 40.09 22.5293C40.34 21.9387 41.0225 21.6604 41.6137 21.9115C45.4733 23.5431 47.9669 27.3064 47.9669 31.4996C47.9669 35.6928 45.4733 39.4561 41.6137 41.0877C41.4666 41.1502 41.3121 41.1796 41.161 41.1796Z" fill="white"/>
<path d="M39.1629 36.4504C38.7097 36.4504 38.2795 36.1837 38.092 35.7396C37.8423 35.148 38.1192 34.4667 38.7108 34.217C39.8043 33.7548 40.5103 32.6886 40.5103 31.5C40.5103 30.3109 39.8043 29.2448 38.7108 28.7829C38.1192 28.5332 37.842 27.8515 38.092 27.2603C38.3416 26.6676 39.0244 26.3892 39.6146 26.6414C41.5722 27.467 42.836 29.3745 42.836 31.5003C42.836 33.6258 41.5722 35.5325 39.6146 36.3589C39.467 36.421 39.3137 36.4504 39.1629 36.4504Z" fill="white"/>
<path d="M33.5322 47.0084C33.2995 48.2105 32.4802 49.3934 31.0693 49.7945C30.6555 49.7945 30.2412 49.9996 30.0342 49.9996C28.9999 49.9995 28.1723 49.5884 27.5518 48.9713L20.9307 42.3873C19.2755 40.7414 17.2066 39.9185 15.1377 39.9185C13.0688 39.9184 11 38.2715 11 36.0084V27.7789C11 25.5157 12.8619 23.8689 14.9307 23.8687C16.3048 23.8687 17.7688 23.5031 19.0225 22.7769L33.5322 47.0084ZM27.1377 15.022C28.1721 13.9933 29.4141 13.7873 30.8623 14.1988C32.1036 14.6104 33.1379 15.6395 33.3447 17.0797C34.1723 21.1946 35 27.1611 35 31.8931C35 33.9359 34.8443 36.2089 34.6191 38.4801L23.0225 19.1138L27.1377 15.022Z" fill="white"/>
<rect x="15" y="16.269" width="2.46999" height="42.5896" rx="1.235" transform="rotate(-30.9147 15 16.269)" fill="white"/>
</svg>
