<svg width="64" height="64" viewBox="0 0 64 64" fill="none" xmlns="http://www.w3.org/2000/svg">
<path d="M35 31.8936C35 36.626 34.1724 42.593 33.5518 46.9138C33.3448 48.1482 32.5172 49.3828 31.069 49.7944C30.6552 49.7944 30.2414 50 30.0344 50C29 50 28.1724 49.5886 27.5518 48.9714L20.931 42.3872C19.2758 40.7412 17.2069 39.9182 15.1379 39.9182C13.069 39.9182 11 38.272 11 36.0088V27.7785C11 25.5152 12.8621 23.8692 14.931 23.8692C17 23.8692 19.2758 23.0462 20.7242 21.4001L27.138 15.0217C28.1724 13.9929 29.4138 13.7872 30.862 14.1987C32.1034 14.6102 33.138 15.639 33.3448 17.0793C34.1724 21.1944 35 27.1613 35 31.8936Z" fill="white"/>
<rect x="50.4814" y="23" width="5" height="20" rx="2.5" transform="rotate(45 50.4814 23)" fill="white"/>
<rect x="36" y="26.6967" width="5" height="20" rx="2.5" transform="rotate(-45 36 26.6967)" fill="white"/>
</svg>
